<svg width="2688" height="308" viewBox="0 0 2688 308" fill="none" xmlns="http://www.w3.org/2000/svg">
<path d="M2572.11 27.2568C2583.33 11.3571 2601.19 1.363 2620.66 0.227303C2621.81 0.227303 2622.95 0.227303 2624.33 0.227303C2629.14 0.227303 2633.72 0.681608 2638.53 1.8173C2666.01 7.95004 2686.17 31.7996 2687.77 59.7376V60.1919C2688 62.2361 2688 64.0533 2688 66.0975V306.864H2642.65V66.0975C2642.65 65.1889 2642.65 64.0533 2642.42 63.1447C2642.42 54.7406 2636.47 47.4721 2628.22 45.655C2626.85 45.4279 2625.47 45.2008 2624.1 45.2008C2618.6 45.2008 2613.56 47.4722 2610.13 51.7878L2608.75 53.3777L2516.68 253.941C2510.27 268.024 2499.96 293.009 2486.67 301.867C2480.49 305.956 2473.39 307.092 2466.06 307.092C2458.73 307.092 2451.63 305.956 2445.45 301.867C2432.16 293.236 2421.86 268.024 2415.44 253.941L2323.37 53.3777L2322 51.7878C2318.56 47.6993 2313.52 45.2008 2308.02 45.2008C2306.65 45.2008 2305.28 45.4279 2303.9 45.655C2295.66 47.4721 2289.7 54.7406 2289.7 63.1447C2289.47 64.0533 2289.47 65.1889 2289.47 66.0975V306.864H2244.12V66.0975C2244.12 64.0533 2244.12 62.2361 2244.35 60.1919V59.7376C2245.95 31.7996 2265.88 8.17718 2293.6 1.8173C2298.18 0.681608 2302.99 0.227303 2307.8 0.227303C2308.94 0.227303 2310.09 0.227303 2311.46 0.227303C2330.93 1.363 2349.02 11.3571 2360.02 27.2568L2362.76 31.3453L2465.83 255.758L2568.9 31.3453L2572.11 27.2568Z" fill="white"/>
<path d="M2078.76 0V194.431C2078.76 256.894 2027.22 308 1964.24 308H1845.82C1782.84 308 1731.3 256.894 1731.3 194.431V0H1776.65V194.431C1776.65 232.136 1807.8 263.026 1845.82 263.026H1964.24C2002.26 263.026 2033.41 232.136 2033.41 194.431V0H2078.76Z" fill="white"/>
<path d="M1566.4 0V308H1521.05V0H1566.4Z" fill="white"/>
<path d="M1152.75 308C1089.77 308 1038.23 256.894 1038.23 194.431V113.569C1038.23 51.1062 1089.77 0 1152.75 0H1355.45V44.9735H1152.75C1114.73 44.9735 1083.58 75.8643 1083.58 113.569V194.431C1083.58 232.136 1114.73 263.026 1152.75 263.026H1355.45V308H1152.75Z" fill="white"/>
<path d="M555.419 308V219.87C555.419 182.619 579.468 149.23 614.74 136.737C624.36 133.33 634.208 131.74 644.286 131.74H783.313C807.133 131.74 826.83 112.434 827.059 88.8112C827.059 88.5841 827.059 88.5841 827.059 88.357C827.059 88.1298 827.059 88.1298 827.059 87.9027C826.83 64.2802 807.362 44.9735 783.313 44.9735H555.19V0H783.313C793.39 0 803.468 1.81714 812.859 4.99708C848.131 17.4897 872.18 50.8791 872.18 88.1298C872.18 103.575 868.057 118.566 860.499 131.513C851.337 147.64 836.908 160.814 819.272 168.764L818.356 169.218C817.898 169.445 817.21 169.673 816.752 169.9L872.18 308H823.395L770.486 176.487H643.599C619.779 176.487 600.082 195.794 599.853 219.416C599.853 219.643 599.853 219.643 599.853 219.87V308H555.419Z" fill="white"/>
<path d="M0 308L97.1124 66.5516C113.603 25.6667 151.395 0 195.828 0C240.262 0 278.282 25.4396 294.544 66.5516L391.656 308H342.871L252.63 83.1327C243.01 59.2832 221.71 44.9735 195.828 44.9735C169.947 44.9735 148.646 59.2832 139.027 83.1327L48.7852 308H0Z" fill="white"/>
</svg>
