<svg width="403" height="45" viewBox="0 0 403 45" fill="none" xmlns="http://www.w3.org/2000/svg">
<path d="M64.4645 44.497H48.673L30.5185 7.17366C29.3777 4.85815 25.8413 4.72861 24.6191 7.23843L6.56237 44.4808H0.5L20.2027 4.08092C22.7939 -1.47306 32.2948 -1.24637 35.0816 4.08092L52.1279 39.1697H55.7784L38.455 3.64373C37.7053 2.28357 37.3142 1.24726 36.0594 0.146176C36.0594 0.146176 42.3336 -0.550097 44.4848 3.53038L64.4645 44.497Z" fill="#6D45FF"/>
<path d="M30.5511 14.5412L16.2426 44.4808H10.1639L26.9006 9.74823C27.634 8.25854 27.471 8.24235 28.1881 9.71585L30.5511 14.5412Z" fill="#6D45FF"/>
<path d="M388.9 7.37107C390.217 5.50472 392.313 4.33159 394.598 4.19828C394.732 4.19828 394.867 4.19828 395.028 4.19828C395.592 4.19828 396.13 4.25161 396.694 4.38492C399.92 5.1048 402.285 7.90432 402.473 11.1838V11.2371C402.5 11.477 402.5 11.6903 402.5 11.9303V40.1922H397.178V11.9303C397.178 11.8236 397.178 11.6903 397.151 11.5837C397.151 10.5972 396.452 9.744 395.485 9.53071C395.324 9.50404 395.162 9.47739 395.001 9.47739C394.356 9.47739 393.765 9.74401 393.361 10.2506L393.2 10.4372L382.395 33.9799C381.643 35.6329 380.433 38.5658 378.874 39.6056C378.149 40.0855 377.315 40.2188 376.455 40.2188C375.595 40.2188 374.762 40.0855 374.036 39.6056C372.477 38.5924 371.268 35.6329 370.515 33.9799L359.71 10.4372L359.549 10.2506C359.146 9.77067 358.555 9.47739 357.91 9.47739C357.748 9.47739 357.587 9.50404 357.426 9.53071C356.458 9.744 355.759 10.5972 355.759 11.5837C355.732 11.6903 355.732 11.8236 355.732 11.9303V40.1922H350.411V11.9303C350.411 11.6903 350.411 11.477 350.437 11.2371V11.1838C350.626 7.90432 352.964 5.13146 356.216 4.38492C356.754 4.25161 357.318 4.19828 357.883 4.19828C358.017 4.19828 358.151 4.19828 358.313 4.19828C360.597 4.33159 362.721 5.50472 364.011 7.37107L364.333 7.851L376.428 34.1932L388.523 7.851L388.9 7.37107Z" fill="black"/>
<path d="M331.005 4.1716V26.9944C331.005 34.3265 324.957 40.3254 317.566 40.3254H303.67C296.278 40.3254 290.231 34.3265 290.231 26.9944V4.1716H295.553V26.9944C295.553 31.4203 299.208 35.0463 303.67 35.0463H317.566C322.027 35.0463 325.683 31.4203 325.683 26.9944V4.1716H331.005Z" fill="black"/>
<path d="M270.879 4.1716V40.3254H265.557V4.1716H270.879Z" fill="black"/>
<path d="M222.337 40.3254C214.946 40.3254 208.898 34.3265 208.898 26.9944V17.5027C208.898 10.1706 214.946 4.1716 222.337 4.1716H246.124V9.4507H222.337C217.876 9.4507 214.22 13.0767 214.22 17.5027V26.9944C214.22 31.4203 217.876 35.0463 222.337 35.0463H246.124V40.3254H222.337Z" fill="black"/>
<path d="M152.24 40.3254V29.9805C152.24 25.6079 155.062 21.6886 159.201 20.2222C160.33 19.8223 161.486 19.6356 162.668 19.6356H178.983C181.778 19.6356 184.09 17.3693 184.117 14.5965C184.117 14.5698 184.117 14.5698 184.117 14.5432C184.117 14.5165 184.117 14.5165 184.117 14.4898C184.09 11.717 181.805 9.4507 178.983 9.4507H152.213V4.1716H178.983C180.166 4.1716 181.348 4.3849 182.45 4.75817C186.59 6.22459 189.412 10.1439 189.412 14.5165C189.412 16.3295 188.928 18.0892 188.041 19.609C186.966 21.502 185.273 23.0484 183.203 23.9816L183.095 24.0349C183.042 24.0615 182.961 24.0882 182.907 24.1149L189.412 40.3254H183.687L177.478 24.8881H162.588C159.792 24.8881 157.481 27.1544 157.454 29.9272C157.454 29.9539 157.454 29.9539 157.454 29.9805V40.3254H152.24Z" fill="black"/>
<path d="M87.0606 40.3254L98.4569 11.9836C100.392 7.18442 104.827 4.1716 110.041 4.1716C115.256 4.1716 119.717 7.15776 121.626 11.9836L133.022 40.3254H127.297L116.707 13.9299C115.578 11.1304 113.078 9.4507 110.041 9.4507C107.004 9.4507 104.504 11.1304 103.376 13.9299L92.7856 40.3254H87.0606Z" fill="black"/>
</svg>
